<svg width="162" height="27" viewBox="0 0 162 27" fill="none" xmlns="http://www.w3.org/2000/svg">
<path d="M0.512172 4.91504H4.79499L8.91885 12.7036H9.09546L13.2193 4.91504H17.5021L10.9057 16.6067V23H7.10859V16.6067L0.512172 4.91504ZM20.5164 23.2561C19.651 23.2561 18.8798 23.106 18.2028 22.8057C17.5257 22.4996 16.99 22.0492 16.5956 21.4547C16.2071 20.8542 16.0128 20.1065 16.0128 19.2117C16.0128 18.4582 16.1511 17.8253 16.4278 17.3131C16.7045 16.801 17.0813 16.3889 17.5581 16.0769C18.035 15.7648 18.5766 15.5294 19.1829 15.3704C19.7952 15.2115 20.4369 15.0996 21.108 15.0348C21.8969 14.9524 22.5327 14.8759 23.0154 14.8053C23.4981 14.7287 23.8484 14.6169 24.0662 14.4697C24.2841 14.3225 24.393 14.1047 24.393 13.8162V13.7632C24.393 13.204 24.2164 12.7713 23.8631 12.4652C23.5158 12.159 23.0213 12.006 22.3796 12.006C21.7026 12.006 21.1639 12.1561 20.7636 12.4563C20.3633 12.7507 20.0984 13.1216 19.9689 13.569L16.4896 13.2864C16.6662 12.4622 17.0136 11.7499 17.5316 11.1494C18.0497 10.543 18.7179 10.078 19.5362 9.75418C20.3604 9.42451 21.3141 9.25967 22.3973 9.25967C23.1508 9.25967 23.872 9.34798 24.5608 9.52459C25.2554 9.7012 25.8706 9.97495 26.4063 10.3458C26.9479 10.7167 27.3748 11.1936 27.6868 11.7764C27.9988 12.3533 28.1548 13.045 28.1548 13.8516V23H24.5872V21.1191H24.4813C24.2635 21.543 23.972 21.9168 23.6071 22.2406C23.2421 22.5585 22.8035 22.8087 22.2913 22.9912C21.7791 23.1678 21.1875 23.2561 20.5164 23.2561ZM21.5937 20.6599C22.1471 20.6599 22.6357 20.551 23.0596 20.3332C23.4834 20.1095 23.816 19.8092 24.0574 19.4325C24.2988 19.0557 24.4195 18.6289 24.4195 18.152V16.7127C24.3017 16.7892 24.1398 16.8598 23.9338 16.9246C23.7336 16.9835 23.507 17.0394 23.2538 17.0924C23.0007 17.1395 22.7475 17.1836 22.4944 17.2248C22.2413 17.2601 22.0117 17.2925 21.8056 17.322C21.3641 17.3867 20.9785 17.4897 20.6488 17.631C20.3191 17.7723 20.0631 17.9636 19.8806 18.205C19.6981 18.4405 19.6068 18.7348 19.6068 19.0881C19.6068 19.6002 19.7923 19.9917 20.1631 20.2625C20.5399 20.5274 21.0168 20.6599 21.5937 20.6599ZM42.11 13.3041L38.6661 13.516C38.6073 13.2216 38.4807 12.9567 38.2864 12.7212C38.0921 12.4799 37.8361 12.2885 37.5182 12.1473C37.2061 12.0001 36.8323 11.9265 36.3967 11.9265C35.8139 11.9265 35.3223 12.0501 34.922 12.2974C34.5217 12.5387 34.3215 12.8625 34.3215 13.2687C34.3215 13.5925 34.451 13.8663 34.71 14.09C34.9691 14.3137 35.4135 14.4932 36.0435 14.6286L38.4984 15.1232C39.817 15.394 40.8002 15.8296 41.4478 16.4301C42.0953 17.0306 42.4191 17.8194 42.4191 18.7967C42.4191 19.6856 42.1571 20.4656 41.6332 21.1368C41.1151 21.8079 40.4028 22.3318 39.4962 22.7086C38.5955 23.0795 37.5564 23.2649 36.379 23.2649C34.5835 23.2649 33.1529 22.8911 32.0874 22.1434C31.0277 21.3899 30.4066 20.3656 30.2241 19.0704L33.9241 18.8761C34.036 19.4236 34.3068 19.8416 34.7365 20.1301C35.1663 20.4127 35.7167 20.5539 36.3879 20.5539C37.0472 20.5539 37.577 20.4274 37.9774 20.1742C38.3836 19.9152 38.5896 19.5826 38.5955 19.1764C38.5896 18.8349 38.4454 18.5553 38.1628 18.3375C37.8802 18.1138 37.4446 17.943 36.8559 17.8253L34.5069 17.3573C33.1824 17.0924 32.1963 16.6332 31.5487 15.9797C30.907 15.3263 30.5862 14.4932 30.5862 13.4807C30.5862 12.6094 30.8217 11.8588 31.2926 11.2289C31.7695 10.599 32.4377 10.1133 33.2972 9.77184C34.1626 9.4304 35.1751 9.25967 36.3349 9.25967C38.048 9.25967 39.3961 9.62172 40.3793 10.3458C41.3683 11.0699 41.9452 12.056 42.11 13.3041ZM48.3011 15.1585V23H44.5392V4.91504H48.1951V11.8294H48.354C48.6602 11.0287 49.1547 10.4018 49.8376 9.94845C50.5205 9.48927 51.377 9.25967 52.4073 9.25967C53.3492 9.25967 54.1704 9.46572 54.871 9.87781C55.5774 10.284 56.1249 10.8698 56.5135 11.6351C56.9079 12.3945 57.1022 13.3041 57.0963 14.3637V23H53.3345V15.0348C53.3404 14.1989 53.1284 13.5484 52.6987 13.0833C52.2748 12.6182 51.6802 12.3857 50.9149 12.3857C50.4027 12.3857 49.9494 12.4946 49.555 12.7124C49.1664 12.9302 48.8603 13.2481 48.6366 13.6661C48.4188 14.0782 48.3069 14.5757 48.3011 15.1585ZM65.3853 23V4.91504H72.5204C73.8921 4.91504 75.0607 5.17702 76.0261 5.70096C76.9916 6.21902 77.7275 6.94018 78.2338 7.86444C78.7459 8.78282 79.002 9.84249 79.002 11.0434C79.002 12.2444 78.743 13.3041 78.2249 14.2224C77.7069 15.1408 76.9563 15.8561 75.9732 16.3683C74.9959 16.8804 73.8126 17.1365 72.4233 17.1365H67.8755V14.0723H71.8051C72.541 14.0723 73.1474 13.9457 73.6242 13.6926C74.107 13.4336 74.4661 13.0774 74.7016 12.6241C74.9429 12.1649 75.0636 11.638 75.0636 11.0434C75.0636 10.443 74.9429 9.91902 74.7016 9.4716C74.4661 9.0183 74.107 8.66802 73.6242 8.42077C73.1415 8.16763 72.5292 8.04106 71.7875 8.04106H69.209V23H65.3853ZM81.1663 23V9.43628H84.8133V11.8029H84.9546C85.2019 10.961 85.6169 10.3252 86.1997 9.89547C86.7825 9.45983 87.4537 9.24201 88.2131 9.24201C88.4015 9.24201 88.6046 9.25378 88.8224 9.27733C89.0402 9.30088 89.2315 9.33326 89.3964 9.37447V12.7124C89.2198 12.6594 88.9755 12.6123 88.6634 12.5711C88.3514 12.5299 88.0659 12.5093 87.8069 12.5093C87.2535 12.5093 86.759 12.63 86.3233 12.8714C85.8936 13.1068 85.5521 13.4365 85.299 13.8604C85.0517 14.2843 84.9281 14.7729 84.9281 15.3263V23H81.1663ZM94.5719 23.2561C93.7065 23.2561 92.9353 23.106 92.2583 22.8057C91.5813 22.4996 91.0455 22.0492 90.6511 21.4547C90.2626 20.8542 90.0683 20.1065 90.0683 19.2117C90.0683 18.4582 90.2066 17.8253 90.4833 17.3131C90.76 16.801 91.1368 16.3889 91.6136 16.0769C92.0905 15.7648 92.6321 15.5294 93.2385 15.3704C93.8507 15.2115 94.4924 15.0996 95.1635 15.0348C95.9524 14.9524 96.5882 14.8759 97.0709 14.8053C97.5537 14.7287 97.9039 14.6169 98.1218 14.4697C98.3396 14.3225 98.4485 14.1047 98.4485 13.8162V13.7632C98.4485 13.204 98.2719 12.7713 97.9187 12.4652C97.5713 12.159 97.0768 12.006 96.4351 12.006C95.7581 12.006 95.2194 12.1561 94.8191 12.4563C94.4188 12.7507 94.1539 13.1216 94.0244 13.569L90.5451 13.2864C90.7218 12.4622 91.0691 11.7499 91.5872 11.1494C92.1052 10.543 92.7734 10.078 93.5917 9.75418C94.4159 9.42451 95.3696 9.25967 96.4528 9.25967C97.2063 9.25967 97.9275 9.34798 98.6163 9.52459C99.3109 9.7012 99.9261 9.97495 100.462 10.3458C101.003 10.7167 101.43 11.1936 101.742 11.7764C102.054 12.3533 102.21 13.045 102.21 13.8516V23H98.6428V21.1191H98.5368C98.319 21.543 98.0276 21.9168 97.6626 22.2406C97.2976 22.5585 96.859 22.8087 96.3468 22.9912C95.8346 23.1678 95.243 23.2561 94.5719 23.2561ZM95.6492 20.6599C96.2026 20.6599 96.6912 20.551 97.1151 20.3332C97.5389 20.1095 97.8716 19.8092 98.1129 19.4325C98.3543 19.0557 98.475 18.6289 98.475 18.152V16.7127C98.3572 16.7892 98.1953 16.8598 97.9893 16.9246C97.7891 16.9835 97.5625 17.0394 97.3093 17.0924C97.0562 17.1395 96.8031 17.1836 96.5499 17.2248C96.2968 17.2601 96.0672 17.2925 95.8611 17.322C95.4196 17.3867 95.034 17.4897 94.7043 17.631C94.3747 17.7723 94.1186 17.9636 93.9361 18.205C93.7536 18.4405 93.6623 18.7348 93.6623 19.0881C93.6623 19.6002 93.8478 19.9917 94.2187 20.2625C94.5954 20.5274 95.0723 20.6599 95.6492 20.6599ZM108.289 19.0969L108.298 14.5845H108.845L113.19 9.43628H117.508L111.671 16.2535H110.779L108.289 19.0969ZM104.88 23V4.91504H108.642V23H104.88ZM113.357 23L109.366 17.0924L111.874 14.4344L117.764 23H113.357ZM122.972 23.2561C122.107 23.2561 121.336 23.106 120.659 22.8057C119.982 22.4996 119.446 22.0492 119.052 21.4547C118.663 20.8542 118.469 20.1065 118.469 19.2117C118.469 18.4582 118.607 17.8253 118.884 17.3131C119.161 16.801 119.537 16.3889 120.014 16.0769C120.491 15.7648 121.033 15.5294 121.639 15.3704C122.251 15.2115 122.893 15.0996 123.564 15.0348C124.353 14.9524 124.989 14.8759 125.472 14.8053C125.954 14.7287 126.305 14.6169 126.522 14.4697C126.74 14.3225 126.849 14.1047 126.849 13.8162V13.7632C126.849 13.204 126.672 12.7713 126.319 12.4652C125.972 12.159 125.477 12.006 124.836 12.006C124.159 12.006 123.62 12.1561 123.22 12.4563C122.819 12.7507 122.555 13.1216 122.425 13.569L118.946 13.2864C119.122 12.4622 119.47 11.7499 119.988 11.1494C120.506 10.543 121.174 10.078 121.992 9.75418C122.816 9.42451 123.77 9.25967 124.853 9.25967C125.607 9.25967 126.328 9.34798 127.017 9.52459C127.712 9.7012 128.327 9.97495 128.862 10.3458C129.404 10.7167 129.831 11.1936 130.143 11.7764C130.455 12.3533 130.611 13.045 130.611 13.8516V23H127.043V21.1191H126.937C126.72 21.543 126.428 21.9168 126.063 22.2406C125.698 22.5585 125.26 22.8087 124.747 22.9912C124.235 23.1678 123.644 23.2561 122.972 23.2561ZM124.05 20.6599C124.603 20.6599 125.092 20.551 125.516 20.3332C125.94 20.1095 126.272 19.8092 126.514 19.4325C126.755 19.0557 126.876 18.6289 126.876 18.152V16.7127C126.758 16.7892 126.596 16.8598 126.39 16.9246C126.19 16.9835 125.963 17.0394 125.71 17.0924C125.457 17.1395 125.204 17.1836 124.951 17.2248C124.697 17.2601 124.468 17.2925 124.262 17.322C123.82 17.3867 123.435 17.4897 123.105 17.631C122.775 17.7723 122.519 17.9636 122.337 18.205C122.154 18.4405 122.063 18.7348 122.063 19.0881C122.063 19.6002 122.248 19.9917 122.619 20.2625C122.996 20.5274 123.473 20.6599 124.05 20.6599ZM144.566 13.3041L141.122 13.516C141.063 13.2216 140.937 12.9567 140.743 12.7212C140.548 12.4799 140.292 12.2885 139.974 12.1473C139.662 12.0001 139.288 11.9265 138.853 11.9265C138.27 11.9265 137.778 12.0501 137.378 12.2974C136.978 12.5387 136.778 12.8625 136.778 13.2687C136.778 13.5925 136.907 13.8663 137.166 14.09C137.425 14.3137 137.87 14.4932 138.5 14.6286L140.954 15.1232C142.273 15.394 143.256 15.8296 143.904 16.4301C144.551 17.0306 144.875 17.8194 144.875 18.7967C144.875 19.6856 144.613 20.4656 144.089 21.1368C143.571 21.8079 142.859 22.3318 141.952 22.7086C141.052 23.0795 140.013 23.2649 138.835 23.2649C137.04 23.2649 135.609 22.8911 134.544 22.1434C133.484 21.3899 132.863 20.3656 132.68 19.0704L136.38 18.8761C136.492 19.4236 136.763 19.8416 137.193 20.1301C137.622 20.4127 138.173 20.5539 138.844 20.5539C139.503 20.5539 140.033 20.4274 140.433 20.1742C140.84 19.9152 141.046 19.5826 141.052 19.1764C141.046 18.8349 140.902 18.5553 140.619 18.3375C140.336 18.1138 139.901 17.943 139.312 17.8253L136.963 17.3573C135.639 17.0924 134.652 16.6332 134.005 15.9797C133.363 15.3263 133.042 14.4932 133.042 13.4807C133.042 12.6094 133.278 11.8588 133.749 11.2289C134.226 10.599 134.894 10.1133 135.753 9.77184C136.619 9.4304 137.631 9.25967 138.791 9.25967C140.504 9.25967 141.852 9.62172 142.835 10.3458C143.824 11.0699 144.401 12.056 144.566 13.3041ZM150.757 15.1585V23H146.995V4.91504H150.651V11.8294H150.81C151.116 11.0287 151.611 10.4018 152.294 9.94845C152.977 9.48927 153.833 9.25967 154.863 9.25967C155.805 9.25967 156.627 9.46572 157.327 9.87781C158.034 10.284 158.581 10.8698 158.97 11.6351C159.364 12.3945 159.558 13.3041 159.552 14.3637V23H155.791V15.0348C155.796 14.1989 155.585 13.5484 155.155 13.0833C154.731 12.6182 154.136 12.3857 153.371 12.3857C152.859 12.3857 152.406 12.4946 152.011 12.7124C151.623 12.9302 151.316 13.2481 151.093 13.6661C150.875 14.0782 150.763 14.5757 150.757 15.1585Z" fill="white"/>
</svg>
